G04 #@! TF.GenerationSoftware,KiCad,Pcbnew,(5.1.10)-1*
G04 #@! TF.CreationDate,2021-11-20T00:47:51+09:00*
G04 #@! TF.ProjectId,M5Stack_UnitV2_DCDC&RS485,4d355374-6163-46b5-9f55-6e697456325f,rev?*
G04 #@! TF.SameCoordinates,Original*
G04 #@! TF.FileFunction,Copper,L2,Bot*
G04 #@! TF.FilePolarity,Positive*
%FSLAX46Y46*%
G04 Gerber Fmt 4.6, Leading zero omitted, Abs format (unit mm)*
G04 Created by KiCad (PCBNEW (5.1.10)-1) date 2021-11-20 00:47:51*
%MOMM*%
%LPD*%
G01*
G04 APERTURE LIST*
G04 #@! TA.AperFunction,ComponentPad*
%ADD10C,1.524000*%
G04 #@! TD*
G04 #@! TA.AperFunction,ComponentPad*
%ADD11O,1.950000X1.700000*%
G04 #@! TD*
G04 #@! TA.AperFunction,ViaPad*
%ADD12C,0.600000*%
G04 #@! TD*
G04 #@! TA.AperFunction,ViaPad*
%ADD13C,0.900000*%
G04 #@! TD*
G04 #@! TA.AperFunction,Conductor*
%ADD14C,0.200000*%
G04 #@! TD*
G04 #@! TA.AperFunction,Conductor*
%ADD15C,0.254000*%
G04 #@! TD*
G04 #@! TA.AperFunction,Conductor*
%ADD16C,0.152400*%
G04 #@! TD*
G04 APERTURE END LIST*
D10*
X140100000Y-56100000D03*
X140100000Y-54100000D03*
X140100000Y-52100000D03*
X140100000Y-50100000D03*
G04 #@! TA.AperFunction,ComponentPad*
G36*
G01*
X122525000Y-57350000D02*
X121075000Y-57350000D01*
G75*
G02*
X120825000Y-57100000I0J250000D01*
G01*
X120825000Y-55900000D01*
G75*
G02*
X121075000Y-55650000I250000J0D01*
G01*
X122525000Y-55650000D01*
G75*
G02*
X122775000Y-55900000I0J-250000D01*
G01*
X122775000Y-57100000D01*
G75*
G02*
X122525000Y-57350000I-250000J0D01*
G01*
G37*
G04 #@! TD.AperFunction*
D11*
X121800000Y-54000000D03*
X121800000Y-51500000D03*
X121800000Y-49000000D03*
D12*
X124600000Y-58500000D03*
X125200000Y-53200000D03*
X134200000Y-58600000D03*
X135100000Y-55800000D03*
X135000000Y-54300000D03*
X131900000Y-52000000D03*
X129800000Y-52000000D03*
D13*
X129100000Y-55500000D03*
X127300000Y-47100000D03*
D12*
X133906290Y-46981296D03*
X133375728Y-50075728D03*
X124500000Y-48200000D03*
X134400000Y-50000000D03*
X135600000Y-49600000D03*
D14*
X140100000Y-52100000D02*
X135400000Y-52100000D01*
X133400000Y-50100000D02*
X133375728Y-50075728D01*
X135400000Y-52100000D02*
X133400000Y-50100000D01*
X121800000Y-50900000D02*
X124500000Y-48200000D01*
X121800000Y-51500000D02*
X121800000Y-50900000D01*
X134800000Y-49600000D02*
X134400000Y-50000000D01*
X135600000Y-49600000D02*
X134800000Y-49600000D01*
D15*
X142040000Y-58840000D02*
X120360000Y-58840000D01*
X120360000Y-57784351D01*
X120373815Y-57801185D01*
X120470506Y-57880537D01*
X120580820Y-57939502D01*
X120700518Y-57975812D01*
X120825000Y-57988072D01*
X121514250Y-57985000D01*
X121673000Y-57826250D01*
X121673000Y-56627000D01*
X121927000Y-56627000D01*
X121927000Y-57826250D01*
X122085750Y-57985000D01*
X122775000Y-57988072D01*
X122899482Y-57975812D01*
X123019180Y-57939502D01*
X123129494Y-57880537D01*
X123226185Y-57801185D01*
X123305537Y-57704494D01*
X123364502Y-57594180D01*
X123400812Y-57474482D01*
X123413072Y-57350000D01*
X123411524Y-57065565D01*
X139314040Y-57065565D01*
X139381020Y-57305656D01*
X139630048Y-57422756D01*
X139897135Y-57489023D01*
X140172017Y-57501910D01*
X140444133Y-57460922D01*
X140703023Y-57367636D01*
X140818980Y-57305656D01*
X140885960Y-57065565D01*
X140100000Y-56279605D01*
X139314040Y-57065565D01*
X123411524Y-57065565D01*
X123410000Y-56785750D01*
X123251250Y-56627000D01*
X121927000Y-56627000D01*
X121673000Y-56627000D01*
X121653000Y-56627000D01*
X121653000Y-56373000D01*
X121673000Y-56373000D01*
X121673000Y-56353000D01*
X121927000Y-56353000D01*
X121927000Y-56373000D01*
X123251250Y-56373000D01*
X123410000Y-56214250D01*
X123410229Y-56172017D01*
X138698090Y-56172017D01*
X138739078Y-56444133D01*
X138832364Y-56703023D01*
X138894344Y-56818980D01*
X139134435Y-56885960D01*
X139920395Y-56100000D01*
X140279605Y-56100000D01*
X141065565Y-56885960D01*
X141305656Y-56818980D01*
X141422756Y-56569952D01*
X141489023Y-56302865D01*
X141501910Y-56027983D01*
X141460922Y-55755867D01*
X141367636Y-55496977D01*
X141305656Y-55381020D01*
X141065565Y-55314040D01*
X140279605Y-56100000D01*
X139920395Y-56100000D01*
X139134435Y-55314040D01*
X138894344Y-55381020D01*
X138777244Y-55630048D01*
X138710977Y-55897135D01*
X138698090Y-56172017D01*
X123410229Y-56172017D01*
X123413072Y-55650000D01*
X123400812Y-55525518D01*
X123364502Y-55405820D01*
X123305537Y-55295506D01*
X123226185Y-55198815D01*
X123129494Y-55119463D01*
X123019180Y-55060498D01*
X122984392Y-55049945D01*
X123165706Y-54829014D01*
X123303599Y-54571034D01*
X123388513Y-54291111D01*
X123417185Y-54000000D01*
X123388513Y-53708889D01*
X123303599Y-53428966D01*
X123165706Y-53170986D01*
X122980134Y-52944866D01*
X122754014Y-52759294D01*
X122736626Y-52750000D01*
X122754014Y-52740706D01*
X122980134Y-52555134D01*
X123165706Y-52329014D01*
X123303599Y-52071034D01*
X123388513Y-51791111D01*
X123417185Y-51500000D01*
X123388513Y-51208889D01*
X123303599Y-50928966D01*
X123165706Y-50670986D01*
X123121872Y-50617574D01*
X123755807Y-49983639D01*
X132440728Y-49983639D01*
X132440728Y-50167817D01*
X132476660Y-50348457D01*
X132547142Y-50518617D01*
X132649466Y-50671756D01*
X132779700Y-50801990D01*
X132932839Y-50904314D01*
X133102999Y-50974796D01*
X133268213Y-51007660D01*
X134854746Y-52594193D01*
X134877762Y-52622238D01*
X134989680Y-52714087D01*
X135117367Y-52782337D01*
X135213886Y-52811616D01*
X135255914Y-52824365D01*
X135270132Y-52825765D01*
X135363895Y-52835000D01*
X135363902Y-52835000D01*
X135399999Y-52838555D01*
X135436096Y-52835000D01*
X138910955Y-52835000D01*
X139014880Y-52990535D01*
X139124345Y-53100000D01*
X139014880Y-53209465D01*
X138861995Y-53438273D01*
X138756686Y-53692510D01*
X138703000Y-53962408D01*
X138703000Y-54237592D01*
X138756686Y-54507490D01*
X138861995Y-54761727D01*
X139014880Y-54990535D01*
X139209465Y-55185120D01*
X139438273Y-55338005D01*
X139573710Y-55394105D01*
X140100000Y-55920395D01*
X140626290Y-55394105D01*
X140761727Y-55338005D01*
X140990535Y-55185120D01*
X141185120Y-54990535D01*
X141338005Y-54761727D01*
X141443314Y-54507490D01*
X141497000Y-54237592D01*
X141497000Y-53962408D01*
X141443314Y-53692510D01*
X141338005Y-53438273D01*
X141185120Y-53209465D01*
X141075655Y-53100000D01*
X141185120Y-52990535D01*
X141338005Y-52761727D01*
X141443314Y-52507490D01*
X141497000Y-52237592D01*
X141497000Y-51962408D01*
X141443314Y-51692510D01*
X141338005Y-51438273D01*
X141185120Y-51209465D01*
X141075655Y-51100000D01*
X141185120Y-50990535D01*
X141338005Y-50761727D01*
X141443314Y-50507490D01*
X141497000Y-50237592D01*
X141497000Y-49962408D01*
X141443314Y-49692510D01*
X141338005Y-49438273D01*
X141185120Y-49209465D01*
X140990535Y-49014880D01*
X140761727Y-48861995D01*
X140507490Y-48756686D01*
X140237592Y-48703000D01*
X139962408Y-48703000D01*
X139692510Y-48756686D01*
X139438273Y-48861995D01*
X139209465Y-49014880D01*
X139014880Y-49209465D01*
X138861995Y-49438273D01*
X138756686Y-49692510D01*
X138703000Y-49962408D01*
X138703000Y-50237592D01*
X138756686Y-50507490D01*
X138861995Y-50761727D01*
X139014880Y-50990535D01*
X139124345Y-51100000D01*
X139014880Y-51209465D01*
X138910955Y-51365000D01*
X135704447Y-51365000D01*
X135030868Y-50691422D01*
X135126262Y-50596028D01*
X135220578Y-50454874D01*
X135327271Y-50499068D01*
X135507911Y-50535000D01*
X135692089Y-50535000D01*
X135872729Y-50499068D01*
X136042889Y-50428586D01*
X136196028Y-50326262D01*
X136326262Y-50196028D01*
X136428586Y-50042889D01*
X136499068Y-49872729D01*
X136535000Y-49692089D01*
X136535000Y-49507911D01*
X136499068Y-49327271D01*
X136428586Y-49157111D01*
X136326262Y-49003972D01*
X136196028Y-48873738D01*
X136042889Y-48771414D01*
X135872729Y-48700932D01*
X135692089Y-48665000D01*
X135507911Y-48665000D01*
X135327271Y-48700932D01*
X135157111Y-48771414D01*
X135017049Y-48865000D01*
X134836094Y-48865000D01*
X134799999Y-48861445D01*
X134763904Y-48865000D01*
X134763895Y-48865000D01*
X134655915Y-48875635D01*
X134517367Y-48917663D01*
X134389680Y-48985913D01*
X134288642Y-49068833D01*
X134127271Y-49100932D01*
X133957111Y-49171414D01*
X133831196Y-49255547D01*
X133818617Y-49247142D01*
X133648457Y-49176660D01*
X133467817Y-49140728D01*
X133283639Y-49140728D01*
X133102999Y-49176660D01*
X132932839Y-49247142D01*
X132779700Y-49349466D01*
X132649466Y-49479700D01*
X132547142Y-49632839D01*
X132476660Y-49802999D01*
X132440728Y-49983639D01*
X123755807Y-49983639D01*
X124607515Y-49131931D01*
X124772729Y-49099068D01*
X124942889Y-49028586D01*
X125096028Y-48926262D01*
X125226262Y-48796028D01*
X125328586Y-48642889D01*
X125399068Y-48472729D01*
X125435000Y-48292089D01*
X125435000Y-48107911D01*
X125399068Y-47927271D01*
X125328586Y-47757111D01*
X125226262Y-47603972D01*
X125096028Y-47473738D01*
X124942889Y-47371414D01*
X124772729Y-47300932D01*
X124592089Y-47265000D01*
X124407911Y-47265000D01*
X124227271Y-47300932D01*
X124057111Y-47371414D01*
X123903972Y-47473738D01*
X123773738Y-47603972D01*
X123671414Y-47757111D01*
X123600932Y-47927271D01*
X123568069Y-48092485D01*
X123278515Y-48382038D01*
X123165706Y-48170986D01*
X122980134Y-47944866D01*
X122754014Y-47759294D01*
X122496034Y-47621401D01*
X122216111Y-47536487D01*
X121997950Y-47515000D01*
X121602050Y-47515000D01*
X121383889Y-47536487D01*
X121103966Y-47621401D01*
X120845986Y-47759294D01*
X120619866Y-47944866D01*
X120434294Y-48170986D01*
X120360000Y-48309980D01*
X120360000Y-46660000D01*
X142040001Y-46660000D01*
X142040000Y-58840000D01*
G04 #@! TA.AperFunction,Conductor*
D16*
G36*
X142040000Y-58840000D02*
G01*
X120360000Y-58840000D01*
X120360000Y-57784351D01*
X120373815Y-57801185D01*
X120470506Y-57880537D01*
X120580820Y-57939502D01*
X120700518Y-57975812D01*
X120825000Y-57988072D01*
X121514250Y-57985000D01*
X121673000Y-57826250D01*
X121673000Y-56627000D01*
X121927000Y-56627000D01*
X121927000Y-57826250D01*
X122085750Y-57985000D01*
X122775000Y-57988072D01*
X122899482Y-57975812D01*
X123019180Y-57939502D01*
X123129494Y-57880537D01*
X123226185Y-57801185D01*
X123305537Y-57704494D01*
X123364502Y-57594180D01*
X123400812Y-57474482D01*
X123413072Y-57350000D01*
X123411524Y-57065565D01*
X139314040Y-57065565D01*
X139381020Y-57305656D01*
X139630048Y-57422756D01*
X139897135Y-57489023D01*
X140172017Y-57501910D01*
X140444133Y-57460922D01*
X140703023Y-57367636D01*
X140818980Y-57305656D01*
X140885960Y-57065565D01*
X140100000Y-56279605D01*
X139314040Y-57065565D01*
X123411524Y-57065565D01*
X123410000Y-56785750D01*
X123251250Y-56627000D01*
X121927000Y-56627000D01*
X121673000Y-56627000D01*
X121653000Y-56627000D01*
X121653000Y-56373000D01*
X121673000Y-56373000D01*
X121673000Y-56353000D01*
X121927000Y-56353000D01*
X121927000Y-56373000D01*
X123251250Y-56373000D01*
X123410000Y-56214250D01*
X123410229Y-56172017D01*
X138698090Y-56172017D01*
X138739078Y-56444133D01*
X138832364Y-56703023D01*
X138894344Y-56818980D01*
X139134435Y-56885960D01*
X139920395Y-56100000D01*
X140279605Y-56100000D01*
X141065565Y-56885960D01*
X141305656Y-56818980D01*
X141422756Y-56569952D01*
X141489023Y-56302865D01*
X141501910Y-56027983D01*
X141460922Y-55755867D01*
X141367636Y-55496977D01*
X141305656Y-55381020D01*
X141065565Y-55314040D01*
X140279605Y-56100000D01*
X139920395Y-56100000D01*
X139134435Y-55314040D01*
X138894344Y-55381020D01*
X138777244Y-55630048D01*
X138710977Y-55897135D01*
X138698090Y-56172017D01*
X123410229Y-56172017D01*
X123413072Y-55650000D01*
X123400812Y-55525518D01*
X123364502Y-55405820D01*
X123305537Y-55295506D01*
X123226185Y-55198815D01*
X123129494Y-55119463D01*
X123019180Y-55060498D01*
X122984392Y-55049945D01*
X123165706Y-54829014D01*
X123303599Y-54571034D01*
X123388513Y-54291111D01*
X123417185Y-54000000D01*
X123388513Y-53708889D01*
X123303599Y-53428966D01*
X123165706Y-53170986D01*
X122980134Y-52944866D01*
X122754014Y-52759294D01*
X122736626Y-52750000D01*
X122754014Y-52740706D01*
X122980134Y-52555134D01*
X123165706Y-52329014D01*
X123303599Y-52071034D01*
X123388513Y-51791111D01*
X123417185Y-51500000D01*
X123388513Y-51208889D01*
X123303599Y-50928966D01*
X123165706Y-50670986D01*
X123121872Y-50617574D01*
X123755807Y-49983639D01*
X132440728Y-49983639D01*
X132440728Y-50167817D01*
X132476660Y-50348457D01*
X132547142Y-50518617D01*
X132649466Y-50671756D01*
X132779700Y-50801990D01*
X132932839Y-50904314D01*
X133102999Y-50974796D01*
X133268213Y-51007660D01*
X134854746Y-52594193D01*
X134877762Y-52622238D01*
X134989680Y-52714087D01*
X135117367Y-52782337D01*
X135213886Y-52811616D01*
X135255914Y-52824365D01*
X135270132Y-52825765D01*
X135363895Y-52835000D01*
X135363902Y-52835000D01*
X135399999Y-52838555D01*
X135436096Y-52835000D01*
X138910955Y-52835000D01*
X139014880Y-52990535D01*
X139124345Y-53100000D01*
X139014880Y-53209465D01*
X138861995Y-53438273D01*
X138756686Y-53692510D01*
X138703000Y-53962408D01*
X138703000Y-54237592D01*
X138756686Y-54507490D01*
X138861995Y-54761727D01*
X139014880Y-54990535D01*
X139209465Y-55185120D01*
X139438273Y-55338005D01*
X139573710Y-55394105D01*
X140100000Y-55920395D01*
X140626290Y-55394105D01*
X140761727Y-55338005D01*
X140990535Y-55185120D01*
X141185120Y-54990535D01*
X141338005Y-54761727D01*
X141443314Y-54507490D01*
X141497000Y-54237592D01*
X141497000Y-53962408D01*
X141443314Y-53692510D01*
X141338005Y-53438273D01*
X141185120Y-53209465D01*
X141075655Y-53100000D01*
X141185120Y-52990535D01*
X141338005Y-52761727D01*
X141443314Y-52507490D01*
X141497000Y-52237592D01*
X141497000Y-51962408D01*
X141443314Y-51692510D01*
X141338005Y-51438273D01*
X141185120Y-51209465D01*
X141075655Y-51100000D01*
X141185120Y-50990535D01*
X141338005Y-50761727D01*
X141443314Y-50507490D01*
X141497000Y-50237592D01*
X141497000Y-49962408D01*
X141443314Y-49692510D01*
X141338005Y-49438273D01*
X141185120Y-49209465D01*
X140990535Y-49014880D01*
X140761727Y-48861995D01*
X140507490Y-48756686D01*
X140237592Y-48703000D01*
X139962408Y-48703000D01*
X139692510Y-48756686D01*
X139438273Y-48861995D01*
X139209465Y-49014880D01*
X139014880Y-49209465D01*
X138861995Y-49438273D01*
X138756686Y-49692510D01*
X138703000Y-49962408D01*
X138703000Y-50237592D01*
X138756686Y-50507490D01*
X138861995Y-50761727D01*
X139014880Y-50990535D01*
X139124345Y-51100000D01*
X139014880Y-51209465D01*
X138910955Y-51365000D01*
X135704447Y-51365000D01*
X135030868Y-50691422D01*
X135126262Y-50596028D01*
X135220578Y-50454874D01*
X135327271Y-50499068D01*
X135507911Y-50535000D01*
X135692089Y-50535000D01*
X135872729Y-50499068D01*
X136042889Y-50428586D01*
X136196028Y-50326262D01*
X136326262Y-50196028D01*
X136428586Y-50042889D01*
X136499068Y-49872729D01*
X136535000Y-49692089D01*
X136535000Y-49507911D01*
X136499068Y-49327271D01*
X136428586Y-49157111D01*
X136326262Y-49003972D01*
X136196028Y-48873738D01*
X136042889Y-48771414D01*
X135872729Y-48700932D01*
X135692089Y-48665000D01*
X135507911Y-48665000D01*
X135327271Y-48700932D01*
X135157111Y-48771414D01*
X135017049Y-48865000D01*
X134836094Y-48865000D01*
X134799999Y-48861445D01*
X134763904Y-48865000D01*
X134763895Y-48865000D01*
X134655915Y-48875635D01*
X134517367Y-48917663D01*
X134389680Y-48985913D01*
X134288642Y-49068833D01*
X134127271Y-49100932D01*
X133957111Y-49171414D01*
X133831196Y-49255547D01*
X133818617Y-49247142D01*
X133648457Y-49176660D01*
X133467817Y-49140728D01*
X133283639Y-49140728D01*
X133102999Y-49176660D01*
X132932839Y-49247142D01*
X132779700Y-49349466D01*
X132649466Y-49479700D01*
X132547142Y-49632839D01*
X132476660Y-49802999D01*
X132440728Y-49983639D01*
X123755807Y-49983639D01*
X124607515Y-49131931D01*
X124772729Y-49099068D01*
X124942889Y-49028586D01*
X125096028Y-48926262D01*
X125226262Y-48796028D01*
X125328586Y-48642889D01*
X125399068Y-48472729D01*
X125435000Y-48292089D01*
X125435000Y-48107911D01*
X125399068Y-47927271D01*
X125328586Y-47757111D01*
X125226262Y-47603972D01*
X125096028Y-47473738D01*
X124942889Y-47371414D01*
X124772729Y-47300932D01*
X124592089Y-47265000D01*
X124407911Y-47265000D01*
X124227271Y-47300932D01*
X124057111Y-47371414D01*
X123903972Y-47473738D01*
X123773738Y-47603972D01*
X123671414Y-47757111D01*
X123600932Y-47927271D01*
X123568069Y-48092485D01*
X123278515Y-48382038D01*
X123165706Y-48170986D01*
X122980134Y-47944866D01*
X122754014Y-47759294D01*
X122496034Y-47621401D01*
X122216111Y-47536487D01*
X121997950Y-47515000D01*
X121602050Y-47515000D01*
X121383889Y-47536487D01*
X121103966Y-47621401D01*
X120845986Y-47759294D01*
X120619866Y-47944866D01*
X120434294Y-48170986D01*
X120360000Y-48309980D01*
X120360000Y-46660000D01*
X142040001Y-46660000D01*
X142040000Y-58840000D01*
G37*
G04 #@! TD.AperFunction*
M02*
