G04 #@! TF.GenerationSoftware,KiCad,Pcbnew,(5.1.10)-1*
G04 #@! TF.CreationDate,2021-11-20T00:47:51+09:00*
G04 #@! TF.ProjectId,M5Stack_UnitV2_DCDC&RS485,4d355374-6163-46b5-9f55-6e697456325f,rev?*
G04 #@! TF.SameCoordinates,Original*
G04 #@! TF.FileFunction,Legend,Top*
G04 #@! TF.FilePolarity,Positive*
%FSLAX46Y46*%
G04 Gerber Fmt 4.6, Leading zero omitted, Abs format (unit mm)*
G04 Created by KiCad (PCBNEW (5.1.10)-1) date 2021-11-20 00:47:51*
%MOMM*%
%LPD*%
G01*
G04 APERTURE LIST*
%ADD10C,0.120000*%
%ADD11C,0.150000*%
G04 APERTURE END LIST*
D10*
X136500000Y-54750000D02*
X136500000Y-55450000D01*
X135300000Y-55450000D02*
X135300000Y-54750000D01*
X133700000Y-47150000D02*
X133700000Y-47850000D01*
X132500000Y-47850000D02*
X132500000Y-47150000D01*
X124600000Y-55250000D02*
X124600000Y-54550000D01*
X125800000Y-54550000D02*
X125800000Y-55250000D01*
X132150000Y-57200000D02*
X132150000Y-58200000D01*
X133850000Y-58200000D02*
X133850000Y-57200000D01*
X126350000Y-56400000D02*
X126350000Y-58950000D01*
X124650000Y-56400000D02*
X124650000Y-58950000D01*
X126350000Y-56400000D02*
X124650000Y-56400000D01*
X136800000Y-56000000D02*
X136800000Y-58650000D01*
X136800000Y-47600000D02*
X136800000Y-50250000D01*
X136800000Y-58650000D02*
X142650000Y-58650000D01*
X136800000Y-51350000D02*
X136800000Y-54850000D01*
X136800000Y-47600000D02*
X142650000Y-47600000D01*
X142650000Y-47600000D02*
X142650000Y-58650000D01*
X136800000Y-50500000D02*
X136800000Y-51100000D01*
X136800000Y-55100000D02*
X136800000Y-55700000D01*
X120090000Y-59110000D02*
X124110000Y-59110000D01*
X124110000Y-59110000D02*
X124110000Y-46390000D01*
X124110000Y-46390000D02*
X120090000Y-46390000D01*
X120090000Y-46390000D02*
X120090000Y-59110000D01*
X121800000Y-59110000D02*
X121800000Y-58610000D01*
X121800000Y-58610000D02*
X120590000Y-58610000D01*
X120590000Y-58610000D02*
X120590000Y-46890000D01*
X120590000Y-46890000D02*
X121800000Y-46890000D01*
X121800000Y-46890000D02*
X121800000Y-46390000D01*
X122610000Y-59110000D02*
X122610000Y-58110000D01*
X122610000Y-58110000D02*
X124110000Y-58110000D01*
X122610000Y-46390000D02*
X122610000Y-47390000D01*
X122610000Y-47390000D02*
X124110000Y-47390000D01*
X121910000Y-59410000D02*
X124410000Y-59410000D01*
X124410000Y-59410000D02*
X124410000Y-56910000D01*
X133000000Y-53820000D02*
X134000000Y-53820000D01*
X134000000Y-55180000D02*
X133000000Y-55180000D01*
X130100000Y-52320000D02*
X131100000Y-52320000D01*
X131100000Y-53680000D02*
X130100000Y-53680000D01*
X134040000Y-47000000D02*
X134040000Y-48400000D01*
X136360000Y-48400000D02*
X136360000Y-46500000D01*
X135280000Y-50490000D02*
X132850000Y-50490000D01*
X133520000Y-53560000D02*
X135280000Y-53560000D01*
D11*
X130475000Y-51325000D02*
X131875000Y-51325000D01*
X130475000Y-46225000D02*
X126325000Y-46225000D01*
X130475000Y-51375000D02*
X126325000Y-51375000D01*
X130475000Y-46225000D02*
X130475000Y-46370000D01*
X126325000Y-46225000D02*
X126325000Y-46370000D01*
X126325000Y-51375000D02*
X126325000Y-51230000D01*
X130475000Y-51375000D02*
X130475000Y-51325000D01*
X131600000Y-53750000D02*
X126600000Y-53750000D01*
X126600000Y-53750000D02*
X126600000Y-59450000D01*
X126600000Y-59450000D02*
X131600000Y-59450000D01*
X131600000Y-59450000D02*
X131600000Y-53750000D01*
X136185714Y-57133333D02*
X136223809Y-57171428D01*
X136261904Y-57285714D01*
X136261904Y-57361904D01*
X136223809Y-57476190D01*
X136147619Y-57552380D01*
X136071428Y-57590476D01*
X135919047Y-57628571D01*
X135804761Y-57628571D01*
X135652380Y-57590476D01*
X135576190Y-57552380D01*
X135500000Y-57476190D01*
X135461904Y-57361904D01*
X135461904Y-57285714D01*
X135500000Y-57171428D01*
X135538095Y-57133333D01*
X136261904Y-56371428D02*
X136261904Y-56828571D01*
X136261904Y-56600000D02*
X135461904Y-56600000D01*
X135576190Y-56676190D01*
X135652380Y-56752380D01*
X135690476Y-56828571D01*
X133385714Y-49533333D02*
X133423809Y-49571428D01*
X133461904Y-49685714D01*
X133461904Y-49761904D01*
X133423809Y-49876190D01*
X133347619Y-49952380D01*
X133271428Y-49990476D01*
X133119047Y-50028571D01*
X133004761Y-50028571D01*
X132852380Y-49990476D01*
X132776190Y-49952380D01*
X132700000Y-49876190D01*
X132661904Y-49761904D01*
X132661904Y-49685714D01*
X132700000Y-49571428D01*
X132738095Y-49533333D01*
X132738095Y-49228571D02*
X132700000Y-49190476D01*
X132661904Y-49114285D01*
X132661904Y-48923809D01*
X132700000Y-48847619D01*
X132738095Y-48809523D01*
X132814285Y-48771428D01*
X132890476Y-48771428D01*
X133004761Y-48809523D01*
X133461904Y-49266666D01*
X133461904Y-48771428D01*
X125485714Y-52933333D02*
X125523809Y-52971428D01*
X125561904Y-53085714D01*
X125561904Y-53161904D01*
X125523809Y-53276190D01*
X125447619Y-53352380D01*
X125371428Y-53390476D01*
X125219047Y-53428571D01*
X125104761Y-53428571D01*
X124952380Y-53390476D01*
X124876190Y-53352380D01*
X124800000Y-53276190D01*
X124761904Y-53161904D01*
X124761904Y-53085714D01*
X124800000Y-52971428D01*
X124838095Y-52933333D01*
X124761904Y-52666666D02*
X124761904Y-52171428D01*
X125066666Y-52438095D01*
X125066666Y-52323809D01*
X125104761Y-52247619D01*
X125142857Y-52209523D01*
X125219047Y-52171428D01*
X125409523Y-52171428D01*
X125485714Y-52209523D01*
X125523809Y-52247619D01*
X125561904Y-52323809D01*
X125561904Y-52552380D01*
X125523809Y-52628571D01*
X125485714Y-52666666D01*
X134585714Y-58533333D02*
X134623809Y-58571428D01*
X134661904Y-58685714D01*
X134661904Y-58761904D01*
X134623809Y-58876190D01*
X134547619Y-58952380D01*
X134471428Y-58990476D01*
X134319047Y-59028571D01*
X134204761Y-59028571D01*
X134052380Y-58990476D01*
X133976190Y-58952380D01*
X133900000Y-58876190D01*
X133861904Y-58761904D01*
X133861904Y-58685714D01*
X133900000Y-58571428D01*
X133938095Y-58533333D01*
X134128571Y-57847619D02*
X134661904Y-57847619D01*
X133823809Y-58038095D02*
X134395238Y-58228571D01*
X134395238Y-57733333D01*
X126461904Y-56190476D02*
X125661904Y-56190476D01*
X125661904Y-56000000D01*
X125700000Y-55885714D01*
X125776190Y-55809523D01*
X125852380Y-55771428D01*
X126004761Y-55733333D01*
X126119047Y-55733333D01*
X126271428Y-55771428D01*
X126347619Y-55809523D01*
X126423809Y-55885714D01*
X126461904Y-56000000D01*
X126461904Y-56190476D01*
X126461904Y-54971428D02*
X126461904Y-55428571D01*
X126461904Y-55200000D02*
X125661904Y-55200000D01*
X125776190Y-55276190D01*
X125852380Y-55352380D01*
X125890476Y-55428571D01*
X141633333Y-46461904D02*
X141633333Y-47033333D01*
X141595238Y-47147619D01*
X141519047Y-47223809D01*
X141404761Y-47261904D01*
X141328571Y-47261904D01*
X142433333Y-47261904D02*
X141976190Y-47261904D01*
X142204761Y-47261904D02*
X142204761Y-46461904D01*
X142128571Y-46576190D01*
X142052380Y-46652380D01*
X141976190Y-46690476D01*
X140228571Y-47361904D02*
X139771428Y-47361904D01*
X140000000Y-47361904D02*
X140000000Y-46561904D01*
X139923809Y-46676190D01*
X139847619Y-46752380D01*
X139771428Y-46790476D01*
X122961904Y-53066666D02*
X123533333Y-53066666D01*
X123647619Y-53104761D01*
X123723809Y-53180952D01*
X123761904Y-53295238D01*
X123761904Y-53371428D01*
X123038095Y-52723809D02*
X123000000Y-52685714D01*
X122961904Y-52609523D01*
X122961904Y-52419047D01*
X123000000Y-52342857D01*
X123038095Y-52304761D01*
X123114285Y-52266666D01*
X123190476Y-52266666D01*
X123304761Y-52304761D01*
X123761904Y-52761904D01*
X123761904Y-52266666D01*
X133366666Y-56061904D02*
X133100000Y-55680952D01*
X132909523Y-56061904D02*
X132909523Y-55261904D01*
X133214285Y-55261904D01*
X133290476Y-55300000D01*
X133328571Y-55338095D01*
X133366666Y-55414285D01*
X133366666Y-55528571D01*
X133328571Y-55604761D01*
X133290476Y-55642857D01*
X133214285Y-55680952D01*
X132909523Y-55680952D01*
X134128571Y-56061904D02*
X133671428Y-56061904D01*
X133900000Y-56061904D02*
X133900000Y-55261904D01*
X133823809Y-55376190D01*
X133747619Y-55452380D01*
X133671428Y-55490476D01*
X128666666Y-53361904D02*
X128400000Y-52980952D01*
X128209523Y-53361904D02*
X128209523Y-52561904D01*
X128514285Y-52561904D01*
X128590476Y-52600000D01*
X128628571Y-52638095D01*
X128666666Y-52714285D01*
X128666666Y-52828571D01*
X128628571Y-52904761D01*
X128590476Y-52942857D01*
X128514285Y-52980952D01*
X128209523Y-52980952D01*
X128971428Y-52638095D02*
X129009523Y-52600000D01*
X129085714Y-52561904D01*
X129276190Y-52561904D01*
X129352380Y-52600000D01*
X129390476Y-52638095D01*
X129428571Y-52714285D01*
X129428571Y-52790476D01*
X129390476Y-52904761D01*
X128933333Y-53361904D01*
X129428571Y-53361904D01*
X136690476Y-46261904D02*
X136690476Y-46909523D01*
X136728571Y-46985714D01*
X136766666Y-47023809D01*
X136842857Y-47061904D01*
X136995238Y-47061904D01*
X137071428Y-47023809D01*
X137109523Y-46985714D01*
X137147619Y-46909523D01*
X137147619Y-46261904D01*
X137947619Y-47061904D02*
X137490476Y-47061904D01*
X137719047Y-47061904D02*
X137719047Y-46261904D01*
X137642857Y-46376190D01*
X137566666Y-46452380D01*
X137490476Y-46490476D01*
X133790476Y-49561904D02*
X133790476Y-50209523D01*
X133828571Y-50285714D01*
X133866666Y-50323809D01*
X133942857Y-50361904D01*
X134095238Y-50361904D01*
X134171428Y-50323809D01*
X134209523Y-50285714D01*
X134247619Y-50209523D01*
X134247619Y-49561904D01*
X134590476Y-49638095D02*
X134628571Y-49600000D01*
X134704761Y-49561904D01*
X134895238Y-49561904D01*
X134971428Y-49600000D01*
X135009523Y-49638095D01*
X135047619Y-49714285D01*
X135047619Y-49790476D01*
X135009523Y-49904761D01*
X134552380Y-50361904D01*
X135047619Y-50361904D01*
X126090476Y-51561904D02*
X126090476Y-52209523D01*
X126128571Y-52285714D01*
X126166666Y-52323809D01*
X126242857Y-52361904D01*
X126395238Y-52361904D01*
X126471428Y-52323809D01*
X126509523Y-52285714D01*
X126547619Y-52209523D01*
X126547619Y-51561904D01*
X126852380Y-51561904D02*
X127347619Y-51561904D01*
X127080952Y-51866666D01*
X127195238Y-51866666D01*
X127271428Y-51904761D01*
X127309523Y-51942857D01*
X127347619Y-52019047D01*
X127347619Y-52209523D01*
X127309523Y-52285714D01*
X127271428Y-52323809D01*
X127195238Y-52361904D01*
X126966666Y-52361904D01*
X126890476Y-52323809D01*
X126852380Y-52285714D01*
X126190476Y-52861904D02*
X126190476Y-53509523D01*
X126228571Y-53585714D01*
X126266666Y-53623809D01*
X126342857Y-53661904D01*
X126495238Y-53661904D01*
X126571428Y-53623809D01*
X126609523Y-53585714D01*
X126647619Y-53509523D01*
X126647619Y-52861904D01*
X127371428Y-53128571D02*
X127371428Y-53661904D01*
X127180952Y-52823809D02*
X126990476Y-53395238D01*
X127485714Y-53395238D01*
M02*
