M48
; DRILL file {KiCad (5.1.10)-1} date 11/20/21 00:47:50
; FORMAT={3:3/ absolute / metric / suppress leading zeros}
; #@! TF.CreationDate,2021-11-20T00:47:50+09:00
; #@! TF.GenerationSoftware,Kicad,Pcbnew,(5.1.10)-1
FMAT,2
METRIC,TZ
T1C0.300
T2C0.500
T3C0.762
T4C0.950
%
G90
G05
T1
X124500Y-48200
X124600Y-58500
X125200Y-53200
X129800Y-52000
X131900Y-52000
X133376Y-50076
X133906Y-46981
X134200Y-58600
X134400Y-50000
X135000Y-54300
X135100Y-55800
X135600Y-49600
T2
X127300Y-47100
X129100Y-55500
T3
X140100Y-50100
X140100Y-52100
X140100Y-54100
X140100Y-56100
T4
X121800Y-49000
X121800Y-51500
X121800Y-54000
X121800Y-56500
T0
M30
