G04 #@! TF.GenerationSoftware,KiCad,Pcbnew,(5.1.10)-1*
G04 #@! TF.CreationDate,2021-11-20T00:47:51+09:00*
G04 #@! TF.ProjectId,M5Stack_UnitV2_DCDC&RS485,4d355374-6163-46b5-9f55-6e697456325f,rev?*
G04 #@! TF.SameCoordinates,Original*
G04 #@! TF.FileFunction,Legend,Bot*
G04 #@! TF.FilePolarity,Positive*
%FSLAX46Y46*%
G04 Gerber Fmt 4.6, Leading zero omitted, Abs format (unit mm)*
G04 Created by KiCad (PCBNEW (5.1.10)-1) date 2021-11-20 00:47:51*
%MOMM*%
%LPD*%
G01*
G04 APERTURE LIST*
%ADD10C,0.150000*%
G04 APERTURE END LIST*
D10*
X138461904Y-55700000D02*
X138557142Y-55652380D01*
X138700000Y-55652380D01*
X138842857Y-55700000D01*
X138938095Y-55795238D01*
X138985714Y-55890476D01*
X139033333Y-56080952D01*
X139033333Y-56223809D01*
X138985714Y-56414285D01*
X138938095Y-56509523D01*
X138842857Y-56604761D01*
X138700000Y-56652380D01*
X138604761Y-56652380D01*
X138461904Y-56604761D01*
X138414285Y-56557142D01*
X138414285Y-56223809D01*
X138604761Y-56223809D01*
X137985714Y-56652380D02*
X137985714Y-55652380D01*
X137414285Y-56652380D01*
X137414285Y-55652380D01*
X136938095Y-56652380D02*
X136938095Y-55652380D01*
X136700000Y-55652380D01*
X136557142Y-55700000D01*
X136461904Y-55795238D01*
X136414285Y-55890476D01*
X136366666Y-56080952D01*
X136366666Y-56223809D01*
X136414285Y-56414285D01*
X136461904Y-56509523D01*
X136557142Y-56604761D01*
X136700000Y-56652380D01*
X136938095Y-56652380D01*
X138519047Y-53552380D02*
X138995238Y-53552380D01*
X139042857Y-54028571D01*
X138995238Y-53980952D01*
X138900000Y-53933333D01*
X138661904Y-53933333D01*
X138566666Y-53980952D01*
X138519047Y-54028571D01*
X138471428Y-54123809D01*
X138471428Y-54361904D01*
X138519047Y-54457142D01*
X138566666Y-54504761D01*
X138661904Y-54552380D01*
X138900000Y-54552380D01*
X138995238Y-54504761D01*
X139042857Y-54457142D01*
X138185714Y-53552380D02*
X137852380Y-54552380D01*
X137519047Y-53552380D01*
X136995238Y-53552380D02*
X136804761Y-53552380D01*
X136709523Y-53600000D01*
X136614285Y-53695238D01*
X136566666Y-53885714D01*
X136566666Y-54219047D01*
X136614285Y-54409523D01*
X136709523Y-54504761D01*
X136804761Y-54552380D01*
X136995238Y-54552380D01*
X137090476Y-54504761D01*
X137185714Y-54409523D01*
X137233333Y-54219047D01*
X137233333Y-53885714D01*
X137185714Y-53695238D01*
X137090476Y-53600000D01*
X136995238Y-53552380D01*
X136138095Y-53552380D02*
X136138095Y-54361904D01*
X136090476Y-54457142D01*
X136042857Y-54504761D01*
X135947619Y-54552380D01*
X135757142Y-54552380D01*
X135661904Y-54504761D01*
X135614285Y-54457142D01*
X135566666Y-54361904D01*
X135566666Y-53552380D01*
X135233333Y-53552380D02*
X134661904Y-53552380D01*
X134947619Y-54552380D02*
X134947619Y-53552380D01*
X138595238Y-52552380D02*
X138928571Y-52076190D01*
X139166666Y-52552380D02*
X139166666Y-51552380D01*
X138785714Y-51552380D01*
X138690476Y-51600000D01*
X138642857Y-51647619D01*
X138595238Y-51742857D01*
X138595238Y-51885714D01*
X138642857Y-51980952D01*
X138690476Y-52028571D01*
X138785714Y-52076190D01*
X139166666Y-52076190D01*
X138261904Y-52552380D02*
X137738095Y-51885714D01*
X138261904Y-51885714D02*
X137738095Y-52552380D01*
X137357142Y-52552380D02*
X137357142Y-51552380D01*
X137119047Y-51552380D01*
X136976190Y-51600000D01*
X136880952Y-51695238D01*
X136833333Y-51790476D01*
X136785714Y-51980952D01*
X136785714Y-52123809D01*
X136833333Y-52314285D01*
X136880952Y-52409523D01*
X136976190Y-52504761D01*
X137119047Y-52552380D01*
X137357142Y-52552380D01*
X139190476Y-49552380D02*
X138619047Y-49552380D01*
X138904761Y-50552380D02*
X138904761Y-49552380D01*
X138380952Y-50552380D02*
X137857142Y-49885714D01*
X138380952Y-49885714D02*
X137857142Y-50552380D01*
X137476190Y-50552380D02*
X137476190Y-49552380D01*
X137238095Y-49552380D01*
X137095238Y-49600000D01*
X137000000Y-49695238D01*
X136952380Y-49790476D01*
X136904761Y-49980952D01*
X136904761Y-50123809D01*
X136952380Y-50314285D01*
X137000000Y-50409523D01*
X137095238Y-50504761D01*
X137238095Y-50552380D01*
X137476190Y-50552380D01*
X125061904Y-56000000D02*
X125157142Y-55952380D01*
X125300000Y-55952380D01*
X125442857Y-56000000D01*
X125538095Y-56095238D01*
X125585714Y-56190476D01*
X125633333Y-56380952D01*
X125633333Y-56523809D01*
X125585714Y-56714285D01*
X125538095Y-56809523D01*
X125442857Y-56904761D01*
X125300000Y-56952380D01*
X125204761Y-56952380D01*
X125061904Y-56904761D01*
X125014285Y-56857142D01*
X125014285Y-56523809D01*
X125204761Y-56523809D01*
X124585714Y-56952380D02*
X124585714Y-55952380D01*
X124014285Y-56952380D01*
X124014285Y-55952380D01*
X123538095Y-56952380D02*
X123538095Y-55952380D01*
X123300000Y-55952380D01*
X123157142Y-56000000D01*
X123061904Y-56095238D01*
X123014285Y-56190476D01*
X122966666Y-56380952D01*
X122966666Y-56523809D01*
X123014285Y-56714285D01*
X123061904Y-56809523D01*
X123157142Y-56904761D01*
X123300000Y-56952380D01*
X123538095Y-56952380D01*
X126180952Y-54552380D02*
X126752380Y-54552380D01*
X126466666Y-54552380D02*
X126466666Y-53552380D01*
X126561904Y-53695238D01*
X126657142Y-53790476D01*
X126752380Y-53838095D01*
X125800000Y-53647619D02*
X125752380Y-53600000D01*
X125657142Y-53552380D01*
X125419047Y-53552380D01*
X125323809Y-53600000D01*
X125276190Y-53647619D01*
X125228571Y-53742857D01*
X125228571Y-53838095D01*
X125276190Y-53980952D01*
X125847619Y-54552380D01*
X125228571Y-54552380D01*
X124942857Y-53552380D02*
X124609523Y-54552380D01*
X124276190Y-53552380D01*
X123942857Y-54552380D02*
X123942857Y-53552380D01*
X123466666Y-54552380D02*
X123466666Y-53552380D01*
X122895238Y-54552380D01*
X122895238Y-53552380D01*
X124680952Y-51952380D02*
X124680952Y-50952380D01*
X124442857Y-50952380D01*
X124300000Y-51000000D01*
X124204761Y-51095238D01*
X124157142Y-51190476D01*
X124109523Y-51380952D01*
X124109523Y-51523809D01*
X124157142Y-51714285D01*
X124204761Y-51809523D01*
X124300000Y-51904761D01*
X124442857Y-51952380D01*
X124680952Y-51952380D01*
X123680952Y-51571428D02*
X122919047Y-51571428D01*
X123300000Y-51952380D02*
X123300000Y-51190476D01*
X124680952Y-49452380D02*
X124680952Y-48452380D01*
X124442857Y-48452380D01*
X124300000Y-48500000D01*
X124204761Y-48595238D01*
X124157142Y-48690476D01*
X124109523Y-48880952D01*
X124109523Y-49023809D01*
X124157142Y-49214285D01*
X124204761Y-49309523D01*
X124300000Y-49404761D01*
X124442857Y-49452380D01*
X124680952Y-49452380D01*
X123680952Y-49071428D02*
X122919047Y-49071428D01*
X140880952Y-47652380D02*
X140547619Y-48652380D01*
X140214285Y-47652380D01*
X139880952Y-48557142D02*
X139833333Y-48604761D01*
X139880952Y-48652380D01*
X139928571Y-48604761D01*
X139880952Y-48557142D01*
X139880952Y-48652380D01*
X139214285Y-47652380D02*
X139119047Y-47652380D01*
X139023809Y-47700000D01*
X138976190Y-47747619D01*
X138928571Y-47842857D01*
X138880952Y-48033333D01*
X138880952Y-48271428D01*
X138928571Y-48461904D01*
X138976190Y-48557142D01*
X139023809Y-48604761D01*
X139119047Y-48652380D01*
X139214285Y-48652380D01*
X139309523Y-48604761D01*
X139357142Y-48557142D01*
X139404761Y-48461904D01*
X139452380Y-48271428D01*
X139452380Y-48033333D01*
X139404761Y-47842857D01*
X139357142Y-47747619D01*
X139309523Y-47700000D01*
X139214285Y-47652380D01*
X138452380Y-48557142D02*
X138404761Y-48604761D01*
X138452380Y-48652380D01*
X138500000Y-48604761D01*
X138452380Y-48557142D01*
X138452380Y-48652380D01*
X137452380Y-48652380D02*
X138023809Y-48652380D01*
X137738095Y-48652380D02*
X137738095Y-47652380D01*
X137833333Y-47795238D01*
X137928571Y-47890476D01*
X138023809Y-47938095D01*
X136261904Y-48652380D02*
X136261904Y-47652380D01*
X136261904Y-48033333D02*
X136166666Y-47985714D01*
X135976190Y-47985714D01*
X135880952Y-48033333D01*
X135833333Y-48080952D01*
X135785714Y-48176190D01*
X135785714Y-48461904D01*
X135833333Y-48557142D01*
X135880952Y-48604761D01*
X135976190Y-48652380D01*
X136166666Y-48652380D01*
X136261904Y-48604761D01*
X135452380Y-47985714D02*
X135214285Y-48652380D01*
X134976190Y-47985714D02*
X135214285Y-48652380D01*
X135309523Y-48890476D01*
X135357142Y-48938095D01*
X135452380Y-48985714D01*
X133833333Y-48652380D02*
X133833333Y-47652380D01*
X133261904Y-48652380D01*
X133261904Y-47652380D01*
X132642857Y-48652380D02*
X132738095Y-48604761D01*
X132785714Y-48557142D01*
X132833333Y-48461904D01*
X132833333Y-48176190D01*
X132785714Y-48080952D01*
X132738095Y-48033333D01*
X132642857Y-47985714D01*
X132500000Y-47985714D01*
X132404761Y-48033333D01*
X132357142Y-48080952D01*
X132309523Y-48176190D01*
X132309523Y-48461904D01*
X132357142Y-48557142D01*
X132404761Y-48604761D01*
X132500000Y-48652380D01*
X132642857Y-48652380D01*
X131880952Y-48652380D02*
X131880952Y-47985714D01*
X131880952Y-48176190D02*
X131833333Y-48080952D01*
X131785714Y-48033333D01*
X131690476Y-47985714D01*
X131595238Y-47985714D01*
X131261904Y-48652380D02*
X131261904Y-47985714D01*
X131261904Y-47652380D02*
X131309523Y-47700000D01*
X131261904Y-47747619D01*
X131214285Y-47700000D01*
X131261904Y-47652380D01*
X131261904Y-47747619D01*
X140814285Y-47352380D02*
X140814285Y-46352380D01*
X140576190Y-46352380D01*
X140433333Y-46400000D01*
X140338095Y-46495238D01*
X140290476Y-46590476D01*
X140242857Y-46780952D01*
X140242857Y-46923809D01*
X140290476Y-47114285D01*
X140338095Y-47209523D01*
X140433333Y-47304761D01*
X140576190Y-47352380D01*
X140814285Y-47352380D01*
X139242857Y-47257142D02*
X139290476Y-47304761D01*
X139433333Y-47352380D01*
X139528571Y-47352380D01*
X139671428Y-47304761D01*
X139766666Y-47209523D01*
X139814285Y-47114285D01*
X139861904Y-46923809D01*
X139861904Y-46780952D01*
X139814285Y-46590476D01*
X139766666Y-46495238D01*
X139671428Y-46400000D01*
X139528571Y-46352380D01*
X139433333Y-46352380D01*
X139290476Y-46400000D01*
X139242857Y-46447619D01*
X138814285Y-47352380D02*
X138814285Y-46352380D01*
X138576190Y-46352380D01*
X138433333Y-46400000D01*
X138338095Y-46495238D01*
X138290476Y-46590476D01*
X138242857Y-46780952D01*
X138242857Y-46923809D01*
X138290476Y-47114285D01*
X138338095Y-47209523D01*
X138433333Y-47304761D01*
X138576190Y-47352380D01*
X138814285Y-47352380D01*
X137242857Y-47257142D02*
X137290476Y-47304761D01*
X137433333Y-47352380D01*
X137528571Y-47352380D01*
X137671428Y-47304761D01*
X137766666Y-47209523D01*
X137814285Y-47114285D01*
X137861904Y-46923809D01*
X137861904Y-46780952D01*
X137814285Y-46590476D01*
X137766666Y-46495238D01*
X137671428Y-46400000D01*
X137528571Y-46352380D01*
X137433333Y-46352380D01*
X137290476Y-46400000D01*
X137242857Y-46447619D01*
X136290476Y-47352380D02*
X136861904Y-47352380D01*
X136576190Y-47352380D02*
X136576190Y-46352380D01*
X136671428Y-46495238D01*
X136766666Y-46590476D01*
X136861904Y-46638095D01*
X135909523Y-46447619D02*
X135861904Y-46400000D01*
X135766666Y-46352380D01*
X135528571Y-46352380D01*
X135433333Y-46400000D01*
X135385714Y-46447619D01*
X135338095Y-46542857D01*
X135338095Y-46638095D01*
X135385714Y-46780952D01*
X135957142Y-47352380D01*
X135338095Y-47352380D01*
X134909523Y-46971428D02*
X134147619Y-46971428D01*
X134338095Y-47161904D02*
X134147619Y-46971428D01*
X134338095Y-46780952D01*
X133195238Y-46352380D02*
X133671428Y-46352380D01*
X133719047Y-46828571D01*
X133671428Y-46780952D01*
X133576190Y-46733333D01*
X133338095Y-46733333D01*
X133242857Y-46780952D01*
X133195238Y-46828571D01*
X133147619Y-46923809D01*
X133147619Y-47161904D01*
X133195238Y-47257142D01*
X133242857Y-47304761D01*
X133338095Y-47352380D01*
X133576190Y-47352380D01*
X133671428Y-47304761D01*
X133719047Y-47257142D01*
X132861904Y-46352380D02*
X132528571Y-47352380D01*
X132195238Y-46352380D01*
X131052380Y-47352380D02*
X131100000Y-47352380D01*
X131195238Y-47304761D01*
X131338095Y-47161904D01*
X131576190Y-46876190D01*
X131671428Y-46733333D01*
X131719047Y-46590476D01*
X131719047Y-46495238D01*
X131671428Y-46400000D01*
X131576190Y-46352380D01*
X131528571Y-46352380D01*
X131433333Y-46400000D01*
X131385714Y-46495238D01*
X131385714Y-46542857D01*
X131433333Y-46638095D01*
X131480952Y-46685714D01*
X131766666Y-46876190D01*
X131814285Y-46923809D01*
X131861904Y-47019047D01*
X131861904Y-47161904D01*
X131814285Y-47257142D01*
X131766666Y-47304761D01*
X131671428Y-47352380D01*
X131528571Y-47352380D01*
X131433333Y-47304761D01*
X131385714Y-47257142D01*
X131242857Y-47066666D01*
X131195238Y-46923809D01*
X131195238Y-46828571D01*
X130623809Y-46352380D02*
X130623809Y-47161904D01*
X130576190Y-47257142D01*
X130528571Y-47304761D01*
X130433333Y-47352380D01*
X130242857Y-47352380D01*
X130147619Y-47304761D01*
X130100000Y-47257142D01*
X130052380Y-47161904D01*
X130052380Y-46352380D01*
X129623809Y-47066666D02*
X129147619Y-47066666D01*
X129719047Y-47352380D02*
X129385714Y-46352380D01*
X129052380Y-47352380D01*
X128147619Y-47352380D02*
X128480952Y-46876190D01*
X128719047Y-47352380D02*
X128719047Y-46352380D01*
X128338095Y-46352380D01*
X128242857Y-46400000D01*
X128195238Y-46447619D01*
X128147619Y-46542857D01*
X128147619Y-46685714D01*
X128195238Y-46780952D01*
X128242857Y-46828571D01*
X128338095Y-46876190D01*
X128719047Y-46876190D01*
X127861904Y-46352380D02*
X127290476Y-46352380D01*
X127576190Y-47352380D02*
X127576190Y-46352380D01*
X126957142Y-46971428D02*
X126195238Y-46971428D01*
X126385714Y-47161904D02*
X126195238Y-46971428D01*
X126385714Y-46780952D01*
X126766666Y-46780952D02*
X126957142Y-46971428D01*
X126766666Y-47161904D01*
X125147619Y-47352380D02*
X125480952Y-46876190D01*
X125719047Y-47352380D02*
X125719047Y-46352380D01*
X125338095Y-46352380D01*
X125242857Y-46400000D01*
X125195238Y-46447619D01*
X125147619Y-46542857D01*
X125147619Y-46685714D01*
X125195238Y-46780952D01*
X125242857Y-46828571D01*
X125338095Y-46876190D01*
X125719047Y-46876190D01*
X124766666Y-47304761D02*
X124623809Y-47352380D01*
X124385714Y-47352380D01*
X124290476Y-47304761D01*
X124242857Y-47257142D01*
X124195238Y-47161904D01*
X124195238Y-47066666D01*
X124242857Y-46971428D01*
X124290476Y-46923809D01*
X124385714Y-46876190D01*
X124576190Y-46828571D01*
X124671428Y-46780952D01*
X124719047Y-46733333D01*
X124766666Y-46638095D01*
X124766666Y-46542857D01*
X124719047Y-46447619D01*
X124671428Y-46400000D01*
X124576190Y-46352380D01*
X124338095Y-46352380D01*
X124195238Y-46400000D01*
X123338095Y-46685714D02*
X123338095Y-47352380D01*
X123576190Y-46304761D02*
X123814285Y-47019047D01*
X123195238Y-47019047D01*
X122671428Y-46780952D02*
X122766666Y-46733333D01*
X122814285Y-46685714D01*
X122861904Y-46590476D01*
X122861904Y-46542857D01*
X122814285Y-46447619D01*
X122766666Y-46400000D01*
X122671428Y-46352380D01*
X122480952Y-46352380D01*
X122385714Y-46400000D01*
X122338095Y-46447619D01*
X122290476Y-46542857D01*
X122290476Y-46590476D01*
X122338095Y-46685714D01*
X122385714Y-46733333D01*
X122480952Y-46780952D01*
X122671428Y-46780952D01*
X122766666Y-46828571D01*
X122814285Y-46876190D01*
X122861904Y-46971428D01*
X122861904Y-47161904D01*
X122814285Y-47257142D01*
X122766666Y-47304761D01*
X122671428Y-47352380D01*
X122480952Y-47352380D01*
X122385714Y-47304761D01*
X122338095Y-47257142D01*
X122290476Y-47161904D01*
X122290476Y-46971428D01*
X122338095Y-46876190D01*
X122385714Y-46828571D01*
X122480952Y-46780952D01*
X121385714Y-46352380D02*
X121861904Y-46352380D01*
X121909523Y-46828571D01*
X121861904Y-46780952D01*
X121766666Y-46733333D01*
X121528571Y-46733333D01*
X121433333Y-46780952D01*
X121385714Y-46828571D01*
X121338095Y-46923809D01*
X121338095Y-47161904D01*
X121385714Y-47257142D01*
X121433333Y-47304761D01*
X121528571Y-47352380D01*
X121766666Y-47352380D01*
X121861904Y-47304761D01*
X121909523Y-47257142D01*
M02*
